{
  "asset": {
    "generator": "Khronos glTF Blender I/O v4.3.47",
    "version": "2.0"
  },
  "scene": 0,
  "scenes": [
    {
      "name": "Scene",
      "nodes": [
        0
      ]
    }
  ],
  "nodes": [
    {
      "mesh": 0,
      "name": "sphere_gltf"
    }
  ],
  "materials": [
    {
      "doubleSided": true,
      "name": "corrugated_iron_03",
      "normalTexture": {
        "index": 0
      },
      "pbrMetallicRoughness": {
        "baseColorTexture": {
          "index": 1
        },
        "metallicFactor": 0,
        "metallicRoughnessTexture": {
          "index": 2
        }
      }
    }
  ],
  "meshes": [
    {
      "name": "Sphere.001",
      "primitives": [
        {
          "attributes": {
            "POSITION": 0,
            "NORMAL": 1,
            "TEXCOORD_0": 2
          },
          "indices": 3,
          "material": 0
        }
      ]
    }
  ],
  "textures": [
    {
      "sampler": 0,
      "source": 0
    },
    {
      "sampler": 0,
      "source": 1
    },
    {
      "sampler": 0,
      "source": 2
    }
  ],
  "images": [
    {
      "mimeType": "image/jpeg",
      "name": "corrugated_iron_03_nor_gl",
      "uri": "textures/corrugated_iron_03_nor_gl_4k.jpg"
    },
    {
      "mimeType": "image/jpeg",
      "name": "corrugated_iron_03_diff",
      "uri": "textures/corrugated_iron_03_diff_4k.jpg"
    },
    {
      "mimeType": "image/jpeg",
      "name": "corrugated_iron_03_rough",
      "uri": "textures/corrugated_iron_03_arm_4k.jpg"
    }
  ],
  "accessors": [
    {
      "bufferView": 0,
      "componentType": 5126,
      "count": 53777,
      "max": [
        1.0018168687820435,
        1.0031682252883911,
        1.0024405717849731
      ],
      "min": [
        -1.001817226409912,
        -1.0039260387420654,
        -1.0024458169937134
      ],
      "type": "VEC3"
    },
    {
      "bufferView": 1,
      "componentType": 5126,
      "count": 53777,
      "type": "VEC3"
    },
    {
      "bufferView": 2,
      "componentType": 5126,
      "count": 53777,
      "type": "VEC2"
    },
    {
      "bufferView": 3,
      "componentType": 5123,
      "count": 322170,
      "type": "SCALAR"
    }
  ],
  "bufferViews": [
    {
      "buffer": 0,
      "byteLength": 645324,
      "byteOffset": 0,
      "target": 34962
    },
    {
      "buffer": 0,
      "byteLength": 645324,
      "byteOffset": 645324,
      "target": 34962
    },
    {
      "buffer": 0,
      "byteLength": 430216,
      "byteOffset": 1290648,
      "target": 34962
    },
    {
      "buffer": 0,
      "byteLength": 644340,
      "byteOffset": 1720864,
      "target": 34963
    }
  ],
  "samplers": [
    {
      "magFilter": 9729,
      "minFilter": 9987
    }
  ],
  "buffers": [
    {
      "byteLength": 2365204,
      "uri": "corrugated_iron_03.bin"
    }
  ]
}